#!OML:ASF X:\für Bonn\!DataBase\2005_08_12_Daniel\c3d\Daniel.ASF
:FULLY-SPECIFIED
:DEGREES
264
root 1.26082 16.6584 0.594647 -560.221 -98.9629 551.445
lowerback 13.861 1.78449 -1.41088
upperback 2.7032 1.67133 -5.11153
thorax -4.80081 0.732139 -4.8967
lowerneck -1.85007 -4.61447 0.930736
upperneck 4.7218 -6.75136 8.25534
head 2.10304 -3.22517 2.31402
rclavicle 5.03919e-014 -5.725e-014
rhumerus -158.003 -12.9308 81.0671
rradius 13.597
rwrist 156.897
rhand -18.4445 716.046
rfingers 7.12502
rthumb 7.84129 -33.7882
lclavicle 5.03919e-014 -5.725e-014
lhumerus -328.545 135.255 -253.246
lradius 14.3771
lwrist -111.254
lhand -22.9735 7.57398
lfingers 7.12502
lthumb 3.46865 37.5255
rfemur -0.370894 -1.44492 13.221
rtibia 40.0106
rfoot -28.2799 -3.04544
rtoes -12.0165
lfemur -187.924 192.23 -199.966
ltibia 45.9575
lfoot 331.774 -6.57619
ltoes 1.15959
265
root 1.26198 16.6318 0.589957 -560.702 -98.9763 551.687
lowerback 14.2682 1.76541 -1.4282
upperback 2.81249 1.62128 -5.11861
thorax -4.91202 0.70371 -4.90003
lowerneck -2.35474 -4.57776 0.869598
upperneck 4.70012 -6.70997 8.22242
head 2.18592 -3.19326 2.30432
rclavicle -2.97183e-014 4.92986e-014
rhumerus -156.662 -6.90935 83.7709
rradius 15.135
rwrist 162.314
rhand -15.8517 715.052
rfingers 7.12502
rthumb 10.3433 -34.6739
lclavicle -2.97183e-014 4.92986e-014
lhumerus -329.779 141.722 -257.872
lradius 15.3531
lwrist -115.545
lhand -23.3477 9.93761
lfingers 7.12502
lthumb 3.10735 39.8947
rfemur -0.164289 -1.51396 13.1562
rtibia 40.1479
rfoot -28.6608 -2.93487
rtoes -12.1661
lfemur -187.583 192.576 -200.193
ltibia 45.9717
lfoot 331.238 -6.15321
ltoes 0.872586
266
root 1.26328 16.6048 0.58667 -561.315 -99.0053 551.996
lowerback 14.7567 1.74377 -1.43797
upperback 2.93284 1.56335 -5.1346
thorax -5.05542 0.670282 -4.91866
lowerneck -2.82442 -4.5451 0.845284
upperneck 4.6766 -6.67192 8.15932
head 2.25944 -3.16414 2.27906
rclavicle 2.68359e-014 -1.74931e-014
rhumerus -154.632 -4.18128 84.9617
rradius 16.0171
rwrist 164.639
rhand -13.1762 714.707
rfingers 7.12502
rthumb 12.9234 -34.8726
lclavicle 2.68359e-014 -1.74931e-014
lhumerus -329.485 146.319 -260.776
lradius 16.1611
lwrist -117.873
lhand -23.458 11.8831
lfingers 7.12502
lthumb 3.00082 41.8417
rfemur 0.108799 -1.58362 13.0561
rtibia 40.2965
rfoot -29.0331 -2.76713
rtoes -12.2572
lfemur -187.169 192.949 -200.467
ltibia 45.9984
lfoot 330.794 -5.71988
ltoes 0.734154
267
root 1.26654 16.5795 0.582009 -561.844 -99.0413 552.347
lowerback 15.1237 1.71162 -1.48406
upperback 3.02976 1.49242 -5.1444
thorax -5.15889 0.632062 -4.9023
lowerneck -3.1819 -4.50645 0.819237
upperneck 4.45717 -6.60551 8.10481
head 2.24722 -3.12974 2.26095
rclavicle 4.57205e-015 7.95139e-015
rhumerus -152.251 -3.81916 84.818
rradius 16.271
rwrist 164.696
rhand -10.5603 715.096
rfingers 7.12502
rthumb 15.4441 -34.3073
lclavicle 4.57205e-015 7.95139e-015
lhumerus -328.309 149.264 -262.416
lradius 16.7562
lwrist -118.431
lhand -23.3874 13.2176
lfingers 7.12502
lthumb 3.06902 43.1753
rfemur 0.22066 -1.68436 12.9606
rtibia 40.4631
rfoot -29.3539 -2.67378
rtoes -12.4267
lfemur -186.931 193.314 -200.705
ltibia 46.0392
lfoot 330.454 -5.34423
ltoes 0.655043
268
root 1.26871 16.5555 0.575705 -562.438 -99.0971 552.776
lowerback 15.4806 1.67899 -1.55576
upperback 3.12158 1.41644 -5.15554
thorax -5.26277 0.591688 -4.87095
lowerneck -3.41728 -4.46649 0.757798
upperneck 4.12683 -6.52497 8.08564
head 2.17884 -3.09472 2.26424
rclavicle 2.60408e-014 -5.88403e-014
rhumerus -149.741 -4.69414 83.7571
rradius 16.0812
rwrist 163.502
rhand -8.22609 716.084
rfingers 7.12502
rthumb 17.6913 -33.1313
lclavicle 2.60408e-014 -5.88403e-014
lhumerus -326.216 150.417 -262.528
lradius 16.9851
lwrist -117.058
lhand -23.0189 13.828
lfingers 7.12502
lthumb 3.42483 43.7802
rfemur 0.316541 -1.8209 12.8396
rtibia 40.6465
rfoot -29.6362 -2.58307
rtoes -12.6149
lfemur -186.713 193.633 -200.945
ltibia 46.0851
lfoot 330.141 -4.99749
ltoes 0.489632
269
root 1.2706 16.5343 0.567242 -563.091 -99.1753 553.285
lowerback 15.8098 1.64181 -1.67521
upperback 3.20906 1.32785 -5.15994
thorax -5.35783 0.546058 -4.80084
lowerneck -3.67495 -4.4236 0.678348
upperneck 3.86646 -6.4464 8.06624
head 2.13852 -3.05829 2.2701
rclavicle 2.15681e-014 -4.13472e-014
rhumerus -146.899 -7.25735 81.1472
rradius 15.3419
rwrist 160.155
rhand -6.09169 717.513
rfingers 7.12502
rthumb 19.7442 -31.5041
lclavicle 2.15681e-014 -4.13472e-014
lhumerus -323.089 149.837 -260.781
lradius 16.7933
lwrist -113.685
lhand -22.3808 13.857
lfingers 7.12502
lthumb 4.04108 43.7984
rfemur 0.388587 -1.94893 12.7064
rtibia 40.8346
rfoot -29.9257 -2.47229
rtoes -12.6011
lfemur -186.533 193.916 -201.168
ltibia 46.1285
lfoot 329.908 -4.74607
ltoes 0.444694
270
root 1.27279 16.5153 0.557248 -563.822 -99.2613 553.873
lowerback 16.1393 1.60141 -1.83374
upperback 3.30065 1.22785 -5.15833
thorax -5.4498 0.495384 -4.69873
lowerneck -4.11402 -4.38077 0.576209
upperneck 3.83187 -6.38955 8.03375
head 2.20689 -3.02196 2.271
rclavicle -3.926e-014 -1.59028e-014
rhumerus -142.805 -13.5831 74.5056
rradius 13.6359
rwrist 151.319
rhand -3.95902 718.874
rfingers 7.12502
rthumb 21.7933 -29.9188
lclavicle -3.926e-014 -1.59028e-014
lhumerus -319.135 148.221 -257.425
lradius 16.3924
lwrist -108.906
lhand -21.4669 13.1481
lfingers 7.12502
lthumb 4.92354 43.0709
rfemur 0.469978 -2.06999 12.5718
rtibia 41.0046
rfoot -30.2089 -2.41679
rtoes -12.7804
lfemur -186.366 194.088 -201.37
ltibia 46.1601
lfoot 329.734 -4.57281
ltoes 0.3596
271
root 1.2744 16.4999 0.545951 -564.61 -99.356 554.544
lowerback 16.4421 1.55873 -2.02488
upperback 3.37857 1.11927 -5.15865
thorax -5.54215 0.441173 -4.57689
lowerneck -4.6718 -4.33294 0.465923
upperneck 3.99321 -6.34363 7.99885
head 2.36306 -2.98268 2.27002
rclavicle 1.86858e-014 -3.97569e-014
rhumerus -137.428 -20.9277 65.187
rradius 12.0029
rwrist 139.945
rhand -2.31153 720.207
rfingers 7.12502
rthumb 23.3746 -28.3932
lclavicle 1.86858e-014 -3.97569e-014
lhumerus -314.175 145.927 -252.288
lradius 15.9008
lwrist -102.93
lhand -20.3351 11.8627
lfingers 7.12502
lthumb 6.01625 41.7573
rfemur 0.533595 -2.16315 12.4357
rtibia 41.1556
rfoot -30.4631 -2.40306
rtoes -12.8889
lfemur -186.225 194.2 -201.554
ltibia 46.1646
lfoot 329.612 -4.47571
ltoes 0.332415
272
root 1.27629 16.4892 0.534822 -565.351 -99.4709 555.161
lowerback 16.7315 1.50346 -2.21586
upperback 3.47147 0.994654 -5.15323
thorax -5.61123 0.379368 -4.44373
lowerneck -5.23598 -4.28045 0.3281
upperneck 4.18399 -6.29102 7.97609
head 2.53289 -2.93942 2.27888
rclavicle 1.16289e-014 -3.18055e-014
rhumerus -132.186 -25.7681 56.9265
rradius 11.0197
rwrist 131.034
rhand -1.56089 721.743
rfingers 7.12502
rthumb 24.0945 -26.7638
lclavicle 1.16289e-014 -3.18055e-014
lhumerus -308.384 143.607 -245.674
lradius 15.423
lwrist -96.3594
lhand -18.996 10.1209
lfingers 7.12502
lthumb 7.30901 39.9747
rfemur 0.628264 -2.25901 12.2912
rtibia 41.2761
rfoot -30.7205 -2.32147
rtoes -12.8673
lfemur -186.076 194.289 -201.722
ltibia 46.1368
lfoot 329.556 -4.41458
ltoes 0.288015
273
root 1.27775 16.483 0.523483 -566.083 -99.5813 555.822
lowerback 16.9495 1.4454 -2.41167
upperback 3.55229 0.868557 -5.15432
thorax -5.65351 0.317443 -4.31149
lowerneck -5.73342 -4.22841 0.184647
upperneck 4.3454 -6.23399 7.97136
head 2.68263 -2.89641 2.29696
rclavicle -1.55052e-014 5.725e-014
rhumerus -126.301 -29.8616 47.7524
rradius 10.2229
rwrist 121.792
rhand -1.35381 723.055
rfingers 7.12502
rthumb 24.293 -25.426
lclavicle -1.55052e-014 5.725e-014
lhumerus -301.849 141.655 -237.762
lradius 15.0528
lwrist -89.4151
lhand -17.5312 8.18239
lfingers 7.12502
lthumb 8.72272 37.9822
rfemur 0.674017 -2.35867 12.1451
rtibia 41.3752
rfoot -30.9366 -2.31105
rtoes -12.9583
lfemur -185.962 194.322 -201.867
ltibia 46.0672
lfoot 329.517 -4.3902
ltoes 0.164636
